<?xml version="1.0" encoding="UTF-8"?>
<svg xmlns="http://www.w3.org/2000/svg" width="960" height="540" viewBox="0 0 960 540" role="img" aria-label="Super fertilizer income loop">
  <defs>
    <linearGradient id="bg3" x1="0" y1="0" x2="1" y2="1">
      <stop offset="0%" stop-color="#fffbeb"/>
      <stop offset="100%" stop-color="#ecfdf5"/>
    </linearGradient>
    <marker id="arr" markerWidth="10" markerHeight="10" refX="8" refY="3" orient="auto">
      <path d="M0,0 L8,3 L0,6 Z" fill="#64748b"/>
    </marker>
  </defs>
  <rect width="960" height="540" rx="24" fill="url(#bg3)"/>
  <text x="480" y="48" text-anchor="middle" font-family="system-ui,sans-serif" font-size="28" font-weight="700" fill="#1e293b">Super Fertilizer Money Loop</text>
  <text x="480" y="78" text-anchor="middle" font-family="system-ui,sans-serif" font-size="16" fill="#64748b">6x income for ~15 min - repeat every session</text>

  <circle cx="480" cy="270" r="88" fill="#166534"/>
  <text x="480" y="258" text-anchor="middle" font-family="system-ui,sans-serif" font-size="42" font-weight="800" fill="#fff">6x</text>
  <text x="480" y="292" text-anchor="middle" font-family="system-ui,sans-serif" font-size="14" fill="#bbf7d0">harvest boost</text>

  <g font-family="system-ui,sans-serif">
    <rect x="120" y="210" width="180" height="120" rx="16" fill="#fff" stroke="#86efac" stroke-width="2"/>
    <text x="210" y="248" text-anchor="middle" font-size="15" font-weight="700" fill="#166534">Composter</text>
    <text x="210" y="280" text-anchor="middle" font-size="13" font-weight="700" fill="#166534">RECYCLE</text>
    <text x="210" y="312" text-anchor="middle" font-size="12" fill="#64748b">Bottom tier - sprays + fert</text>

    <rect x="660" y="120" width="180" height="120" rx="16" fill="#fff" stroke="#fcd34d" stroke-width="2"/>
    <text x="750" y="158" text-anchor="middle" font-size="15" font-weight="700" fill="#b45309">Super Fertilizer</text>
    <text x="750" y="190" text-anchor="middle" font-size="13" font-weight="700" fill="#b45309">APPLY</text>
    <text x="750" y="222" text-anchor="middle" font-size="12" fill="#64748b">All ready plots</text>

    <rect x="660" y="320" width="180" height="120" rx="16" fill="#fff" stroke="#93c5fd" stroke-width="2"/>
    <text x="750" y="358" text-anchor="middle" font-size="15" font-weight="700" fill="#1d4ed8">Harvest</text>
    <text x="750" y="390" text-anchor="middle" font-size="13" font-weight="700" fill="#1d4ed8">SELL</text>
    <text x="750" y="422" text-anchor="middle" font-size="12" fill="#64748b">During 15 min window</text>

    <rect x="120" y="320" width="180" height="120" rx="16" fill="#fff" stroke="#c4b5fd" stroke-width="2"/>
    <text x="210" y="358" text-anchor="middle" font-size="15" font-weight="700" fill="#6d28d9">Upgrades</text>
    <text x="210" y="390" text-anchor="middle" font-size="13" font-weight="700" fill="#6d28d9">SAW / SOIL</text>
    <text x="210" y="422" text-anchor="middle" font-size="12" fill="#64748b">Sprinkler + soil 50%</text>
  </g>

  <path d="M300 250 C360 200 400 170 660 170" fill="none" stroke="#64748b" stroke-width="2.5" stroke-dasharray="6 4"/>
  <path d="M750 240 L750 320" fill="none" stroke="#64748b" stroke-width="2.5" marker-end="url(#arr)"/>
  <path d="M660 390 C560 430 400 430 300 390" fill="none" stroke="#64748b" stroke-width="2.5" stroke-dasharray="6 4"/>

  <rect x="280" y="468" width="400" height="44" rx="22" fill="#166534"/>
  <text x="480" y="496" text-anchor="middle" font-family="system-ui,sans-serif" font-size="15" font-weight="600" fill="#fff">Outer ring first - max soil quality - +20% ring value</text>
</svg>
